<svg width="72" height="72" viewBox="0 0 72 72" fill="#FFF" xmlns="http://www.w3.org/2000/svg">
<path d="M12 11.9976C11.15 11.9976 10.4375 11.7101 9.86254 11.1351C9.28754 10.5601 9.00004 9.84756 9.00004 8.99756C9.00004 8.14756 9.28754 7.43506 9.86254 6.86006C10.4375 6.28506 11.15 5.99756 12 5.99756H15C15.85 5.99756 16.5625 6.28506 17.1375 6.86006C17.7125 7.43506 18 8.14756 18 8.99756C18 9.84756 17.7125 10.5601 17.1375 11.1351C16.5625 11.7101 15.85 11.9976 15 11.9976H12ZM14.55 53.9976L13.35 59.9976H33V53.9976H14.55ZM16.275 21.5976L18.375 19.4976C18.925 18.9476 19.6125 18.6726 20.4375 18.6726C21.2625 18.6726 21.975 18.9476 22.575 19.4976C23.175 20.0976 23.475 20.8101 23.475 21.6351C23.475 22.4601 23.175 23.1726 22.575 23.7726L20.475 25.8726C19.925 26.4226 19.2375 26.6976 18.4125 26.6976C17.5875 26.6976 16.875 26.4226 16.275 25.8726C15.675 25.2726 15.375 24.5601 15.375 23.7351C15.375 22.9101 15.675 22.1976 16.275 21.5976ZM15.75 47.9976H33V41.9976H16.95L15.75 47.9976ZM36 20.9976C32.5 20.9976 29.4125 19.9226 26.7375 17.7726C24.0625 15.6226 22.3 12.9226 21.45 9.67256C21.25 8.87256 21.3625 8.12256 21.7875 7.42256C22.2125 6.72256 22.825 6.27256 23.625 6.07256C24.425 5.87256 25.1875 5.98506 25.9125 6.41006C26.6375 6.83506 27.1 7.44756 27.3 8.24756C27.8 10.1976 28.85 11.8101 30.45 13.0851C32.05 14.3601 33.9 14.9976 36 14.9976C38.1 14.9976 39.95 14.3601 41.55 13.0851C43.15 11.8101 44.2 10.1976 44.7 8.24756C44.9 7.44756 45.3625 6.83506 46.0875 6.41006C46.8125 5.98506 47.575 5.87256 48.375 6.07256C49.175 6.27256 49.7875 6.72256 50.2125 7.42256C50.6375 8.12256 50.75 8.87256 50.55 9.67256C49.7 12.9226 47.9375 15.6226 45.2625 17.7726C42.5875 19.9226 39.5 20.9976 36 20.9976ZM33 29.9976V26.9976C33 26.1476 33.2875 25.4351 33.8625 24.8601C34.4375 24.2851 35.15 23.9976 36 23.9976C36.85 23.9976 37.5625 24.2851 38.1375 24.8601C38.7125 25.4351 39 26.1476 39 26.9976V29.9976C39 30.8476 38.7125 31.5601 38.1375 32.1351C37.5625 32.7101 36.85 32.9976 36 32.9976C35.15 32.9976 34.4375 32.7101 33.8625 32.1351C33.2875 31.5601 33 30.8476 33 29.9976ZM39 59.9976H58.65L57.45 53.9976H39V59.9976ZM39 47.9976H56.25L55.05 41.9976H39V47.9976ZM51.525 25.7976L49.425 23.6976C48.875 23.1476 48.5875 22.4601 48.5625 21.6351C48.5375 20.8101 48.825 20.0976 49.425 19.4976C49.975 18.9476 50.675 18.6726 51.525 18.6726C52.375 18.6726 53.075 18.9476 53.625 19.4976L55.8 21.5976C56.4 22.1476 56.7 22.8351 56.7 23.6601C56.7 24.4851 56.4 25.1976 55.8 25.7976C55.2 26.3976 54.4875 26.6976 53.6625 26.6976C52.8375 26.6976 52.125 26.3976 51.525 25.7976ZM60 11.9976H57C56.15 11.9976 55.4375 11.7101 54.8625 11.1351C54.2875 10.5601 54 9.84756 54 8.99756C54 8.14756 54.2875 7.43506 54.8625 6.86006C55.4375 6.28506 56.15 5.99756 57 5.99756H60C60.85 5.99756 61.5625 6.28506 62.1375 6.86006C62.7125 7.43506 63 8.14756 63 8.99756C63 9.84756 62.7125 10.5601 62.1375 11.1351C61.5625 11.7101 60.85 11.9976 60 11.9976ZM7.42504 58.7976L11.025 40.7976C11.275 39.3976 11.9625 38.2476 13.0875 37.3476C14.2125 36.4476 15.5 35.9976 16.95 35.9976H55.05C56.5 35.9976 57.7875 36.4476 58.9125 37.3476C60.0375 38.2476 60.725 39.3976 60.975 40.7976L64.575 58.7976C64.975 60.6976 64.5625 62.3726 63.3375 63.8226C62.1125 65.2726 60.55 65.9976 58.65 65.9976H13.35C11.45 65.9976 9.88754 65.2726 8.66254 63.8226C7.43754 62.3726 7.02504 60.6976 7.42504 58.7976Z"/>
</svg>
