
<svg width="58" height="58" viewBox="0 0 58 58" fill="none" xmlns="http://www.w3.org/2000/svg">
<path d="M6.44444 58C4.67222 58 3.15509 57.369 1.89306 56.1069C0.631018 54.8449 0 53.3278 0 51.5556V6.44444C0 4.67222 0.631018 3.15509 1.89306 1.89306C3.15509 0.631018 4.67222 0 6.44444 0H51.5556C53.3278 0 54.8449 0.631018 56.1069 1.89306C57.369 3.15509 58 4.67222 58 6.44444V51.5556C58 53.3278 57.369 54.8449 56.1069 56.1069C54.8449 57.369 53.3278 58 51.5556 58H6.44444ZM6.44444 16.1111H51.5556V6.44444H6.44444V16.1111ZM51.5556 22.5556H6.44444V51.5556H51.5556V22.5556Z" fill="#083967"/>
<path d="M51.5556 22.5556H6.44444V51.5556H51.5556V22.5556Z" fill="white"/>
<path d="M6.44444 16.1111H51.5556V6.44444H6.44444V16.1111Z" fill="white"/>
</svg>
